<svg fill="none" height="387" viewBox="0 0 387 387" width="387" xmlns="http://www.w3.org/2000/svg">
<path d="M111.976 276.024C100.31 264.359 91.6484 250.827 85.9912 236.389M111.976 111.976C100.31 123.641 91.6484 137.174 85.9912 151.611C80.6637 165.205 78.0004 179.602 77.9995 194M276.024 111.976C287.69 123.641 296.352 137.173 302.009 151.611C307.336 165.205 310 179.603 310 194M276.024 276.024C287.69 264.359 296.352 250.827 302.009 236.39M151.611 85.9912C165.205 80.6634 179.603 78.0001 194 77.9998C208.398 78.0004 222.795 80.6641 236.39 85.9911M236.389 299.255C222.795 304.582 208.398 307.245 194 307.246C179.603 307.246 165.206 304.582 151.611 299.254M261.238 212.023C267.439 188.804 261.431 163.002 243.215 144.785C224.999 126.57 199.196 120.561 175.977 126.762M261.238 212.023C258.187 223.45 252.179 234.25 243.215 243.215C221.787 264.643 189.862 269.178 163.991 256.819M261.238 212.023L234.076 211.158C221.446 210.756 211.967 199.469 213.754 186.96L214.962 178.502C216.637 166.78 205.39 157.394 194.157 161.139C182.848 164.908 171.557 155.376 173.377 143.595L175.977 126.762M175.977 126.762C164.551 129.814 153.75 135.821 144.785 144.785C130.087 159.484 123.336 179.123 124.536 198.358M163.991 256.819C157.046 253.501 150.538 248.967 144.785 243.215C132.304 230.733 125.555 214.691 124.536 198.358M163.991 256.819L170.162 244.929C176.385 232.94 171.091 218.191 158.664 212.897L124.536 198.358" stroke="#16D5FF" stroke-linecap="round" stroke-linejoin="round" stroke-width="23"/>
</svg>
